<svg viewBox="0 0 10 18">
  <path d="M0.329574178,8.20857355 L8.10713591,0.333697857 C8.32685203,0.111232619 8.58740035,1.77635684e-15 8.88878087,1.77635684e-15 C9.19016138,1.77635684e-15 9.4507097,0.111232619 9.67042582,0.333697857 C9.89014194,0.556163096 10,0.819971431 10,1.12512286 L10,16.8748742 C10,17.1793694 9.89014194,17.4431778 9.67042582,17.6662993 C9.4507097,17.8894207 9.19016138,18.0006534 8.88878087,17.9999971 C8.58740035,17.9993409 8.32685203,17.8881083 8.10713591,17.6662993 L0.329574178,9.79142356 C0.109858059,9.56895833 0,9.30514999 0,8.99999856 C6.47612108e-16,8.69550336 0.109858059,8.43169503 0.329574178,8.20857355 Z" transform="translate(5.000000, 9.000000) scale(-1, 1) translate(-5.000000, -9.000000) "></path>
</svg>
