<svg class="icon icon-add" width="14px" height="14px" viewBox="0 0 22 22">
  <g fill-rule="evenodd">
    <path d="M11,22 C17.0751322,22 22,17.0751322 22,11 C22,4.92486775 17.0751322,0 11,0 C4.92486775,0 0,4.92486775 0,11 C0,17.0751322 4.92486775,22 11,22 Z M11,20 C15.9705627,20 20,15.9705627 20,11 C20,6.02943725 15.9705627,2 11,2 C6.02943725,2 2,6.02943725 2,11 C2,15.9705627 6.02943725,20 11,20 Z M10,12 L5,12 L5,10 L10,10 L10,5 L12,5 L12,10 L17,10 L17,12 L12,12 L12,17 L10,17 L10,12 Z"></path>
  </g>
</svg>
