<svg viewBox="0 0 10 18">
  <path d="M1.12905951e-09,2 C0,1.09285852e-16 3,1.09285852e-16 3,2 L3,7 L8.10713591,0.333697857 C8.32685203,0.111232619 8.58740035,1.09285854e-16 8.88878087,1.09285854e-16 C9.19016138,1.09285854e-16 9.4507097,0.111232619 9.67042582,0.333697857 C9.89014194,0.556163096 10,0.819971431 10,1.12512286 L10,16.8748742 C10,17.1793694 9.89014194,17.4431778 9.67042582,17.6662993 C9.4507097,17.8894207 9.19016138,18.0006534 8.88878087,17.9999971 C8.58740035,17.9993409 8.32685203,17.8881083 8.10713591,17.6662993 L3,11 L3,16 C3,17.9999962 0,17.9999962 0,16 L1.12905951e-09,2 Z" transform="translate(5.000000, 9.000000) scale(-1, 1) translate(-5.000000, -9.000000) "></path>
</svg>
