<svg class="carma-logo" viewBox="0 0 356 404.7">
    <circle cx="201.3" cy="93.9" r="16.6"/>
    <circle cx="201.5" cy="55.1" r="16.6"/>
    <circle cx="201.3" cy="16.6" r="16.6"/>
    <circle cx="162.7" cy="20.7" r="16.6"/>
    <circle cx="125.9" cy="32.7" r="16.6"/>
    <circle cx="92.2" cy="52.2" r="16.6"/>
    <circle cx="63.3" cy="78.1" r="16.6"/>
    <circle cx="40.5" cy="109.5" r="16.6"/>
    <circle cx="24.7" cy="145" r="16.6"/>
    <circle cx="16.6" cy="183" r="16.6"/>
    <circle cx="16.6" cy="221.9" r="16.6"/>
    <circle cx="24.7" cy="259.7" r="16.6"/>
    <circle cx="40.5" cy="295.2" r="16.6"/>
    <circle cx="63.3" cy="326.6" r="16.6"/>
    <circle cx="92" cy="352.7" r="16.6"/>
    <circle cx="125.7" cy="372" r="16.6"/>
    <circle cx="162.7" cy="384.2" r="16.6"/>
    <circle cx="201.3" cy="388.1" r="16.6"/>
    <circle cx="240" cy="384.2" r="16.6"/>
    <circle cx="276.7" cy="372" r="16.6"/>
    <circle cx="310.4" cy="352.7" r="16.6"/>
    <circle cx="339.4" cy="326.9" r="16.6"/>
    <circle cx="339.4" cy="78.3" r="16.6"/>
    <circle cx="310.6" cy="52.2" r="16.6"/>
    <circle cx="276.9" cy="32.9" r="16.6"/>
    <circle cx="240" cy="20.7" r="16.6"/>
    <circle cx="163.5" cy="60" r="16.6"/>
    <circle cx="128.2" cy="74.6" r="16.6"/>
    <circle cx="97.8" cy="98" r="16.6"/>
    <circle cx="74.4" cy="128.4" r="16.6"/>
    <circle cx="59.6" cy="163.7" r="16.6"/>
    <circle cx="54.6" cy="201.7" r="16.6"/>
    <circle cx="59.6" cy="239.7" r="16.6"/>
    <circle cx="74.2" cy="275.1" r="16.6"/>
    <circle cx="97.6" cy="305.5" r="16.6"/>
    <circle cx="128" cy="328.9" r="16.6"/>
    <circle cx="163.3" cy="343.5" r="16.6"/>
    <circle cx="201.3" cy="348.6" r="16.6"/>
    <circle cx="239.3" cy="343.7" r="16.6"/>
    <circle cx="274.7" cy="329.1" r="16.6"/>
    <circle cx="305.1" cy="305.7" r="16.6"/>
    <circle cx="305.3" cy="98" r="16.6"/>
    <circle cx="274.9" cy="74.8" r="16.6"/>
    <circle cx="239.5" cy="60" r="16.6"/>
    <circle cx="164.1" cy="100.5" r="16.6"/>
    <circle cx="131.5" cy="119.2" r="16.6"/>
    <circle cx="107.2" cy="148.1" r="16.6"/>
    <circle cx="94.5" cy="183.5" r="16.6"/>
    <circle cx="94.3" cy="221.3" r="16.6"/>
    <circle cx="107.2" cy="256.6" r="16.6"/>
    <circle cx="131.5" cy="285.6" r="16.6"/>
    <circle cx="164.1" cy="304.5" r="16.6"/>
    <circle cx="201.3" cy="311" r="16.6"/>
    <circle cx="238.3" cy="304.5" r="16.6"/>
    <circle cx="271" cy="285.6" r="16.6"/>
    <circle cx="271.2" cy="119.4" r="16.6"/>
    <circle cx="238.5" cy="100.5" r="16.6"/>
</svg>
